<svg width="702" height="295" viewBox="0 0 702 295" fill="none" xmlns="http://www.w3.org/2000/svg">
<path fill-rule="evenodd" clip-rule="evenodd" d="M586.053 269.49C647.056 269.49 696.509 220.037 696.509 159.034C696.509 98.0305 647.056 48.5775 586.053 48.5775C566.54 48.5775 548.209 53.6371 532.3 62.516L447.091 154.769L540.827 259.837C554.631 266.04 569.939 269.49 586.053 269.49ZM450.206 97.6192H416.727V134.383L450.206 97.6192ZM416.727 178.684V198.225H433.065L416.727 178.684ZM585.359 216.543C617.181 216.543 642.978 190.746 642.978 158.924C642.978 127.102 617.181 101.306 585.359 101.306C553.537 101.306 527.74 127.102 527.74 158.924C527.74 190.746 553.537 216.543 585.359 216.543Z" fill="white"/>
<path d="M362.912 259.567V58.0111C362.912 54.985 360.458 52.5319 357.432 52.5319H310.764C307.738 52.5319 305.285 54.985 305.285 58.0111V259.567C305.285 262.593 307.738 265.046 310.764 265.046H357.432C360.458 265.046 362.912 262.593 362.912 259.567ZM420.966 151.989L503.654 61.7119C506.873 58.197 504.38 52.5319 499.614 52.5319H451.051C449.501 52.5319 448.023 53.1884 446.984 54.3388L371.649 137.76C370.74 138.767 370.237 140.075 370.237 141.432V165.046C370.237 166.323 370.683 167.56 371.498 168.543L449.866 263.064C450.907 264.319 452.453 265.046 454.084 265.046H508.825C513.546 265.046 516.057 259.472 512.928 255.936L420.966 151.989Z" fill="white" stroke="white" stroke-width="8.46669"/>
<path fill-rule="evenodd" clip-rule="evenodd" d="M243.57 269.49H194.739C190.109 269.49 187.583 266.088 188.425 261.411C188.425 261.411 207.861 161.295 219.661 94.6725C227.957 47.8359 196.504 54.7373 196.504 54.7373C196.925 50.4847 199.871 48.3585 204.081 48.3585H281.035C286.086 48.3585 288.612 51.3352 287.77 56.013L251.568 262.686C250.726 266.939 248.201 269.49 243.57 269.49Z" fill="white"/>
<path fill-rule="evenodd" clip-rule="evenodd" d="M41.3291 54.6468C41.6895 51.1973 44.5975 48.5774 48.0658 48.5774H180.637C184.656 48.5774 187.791 52.0571 187.373 56.0547L183.144 96.5275C182.784 99.977 179.876 102.597 176.408 102.597H43.8368C39.8175 102.597 36.6824 99.1172 37.1001 95.1196L41.3291 54.6468ZM32.8615 138.112C33.2219 134.662 36.1298 132.043 39.5981 132.043H172.169C176.188 132.043 179.323 135.522 178.906 139.52L174.677 179.993C174.316 183.442 171.408 186.062 167.94 186.062H35.3691C31.3499 186.062 28.2148 182.582 28.6325 178.585L32.8615 138.112ZM31.1305 215.471C27.6622 215.471 24.7542 218.091 24.3938 221.541L20.1648 262.013C19.7471 266.011 22.8822 269.491 26.9015 269.491H159.473C162.941 269.491 165.849 266.871 166.209 263.421L170.438 222.948C170.856 218.951 167.721 215.471 163.701 215.471H31.1305Z" fill="white"/>
<path d="M295.251 24.8758C295.693 24.1232 295.151 23.1745 294.278 23.1745H238.195C237.795 23.1745 237.425 23.3862 237.222 23.731L232.905 31.0688C232.463 31.8214 233.005 32.7701 233.878 32.7701H289.961C290.361 32.7701 290.732 32.5584 290.934 32.2136L295.251 24.8758Z" fill="white"/>
<path d="M295.251 24.8758C295.693 24.1232 295.151 23.1745 294.278 23.1745H238.195C237.795 23.1745 237.425 23.3862 237.222 23.731L232.905 31.0688C232.463 31.8214 233.005 32.7701 233.878 32.7701H289.961C290.361 32.7701 290.732 32.5584 290.934 32.2136L295.251 24.8758Z" stroke="white"/>
<path d="M616.863 23.3156H560.78C560.43 23.3156 560.106 23.5009 559.929 23.8026L555.612 31.1404C555.225 31.7988 555.7 32.629 556.464 32.629H612.547C612.897 32.629 613.221 32.4437 613.398 32.142L617.715 24.8042C618.102 24.1457 617.627 23.3156 616.863 23.3156Z" fill="white" stroke="white" stroke-width="0.282223"/>
</svg>
